<?xml version="1.0" encoding="utf-8"?>
<!-- Generator: Adobe Illustrator 27.9.0, SVG Export Plug-In . SVG Version: 6.00 Build 0)  -->
<svg version="1.1" id="Layer_1" xmlns="http://www.w3.org/2000/svg" xmlns:xlink="http://www.w3.org/1999/xlink" x="0px" y="0px"
	 viewBox="0 0 1024 1024" style="enable-background:new 0 0 1024 1024;" xml:space="preserve">
<style type="text/css">
	.st0{stroke:#000000;stroke-width:4;stroke-miterlimit:10;}
</style>
<path class="st0" d="M596.54,671.14c-0.48,0-0.96-0.07-1.44-0.23l-285.65-93.21c-2.43-0.79-3.77-3.42-2.97-5.85l93.21-285.65
	c0.79-2.43,3.42-3.77,5.85-2.97l285.65,93.21c1.18,0.38,2.14,1.21,2.7,2.31c0.56,1.11,0.66,2.36,0.27,3.54l-93.21,285.65
	C600.31,669.89,598.49,671.14,596.54,671.14z M404.1,283.99c-1.53,0-2.96,0.98-3.46,2.51l-93.21,285.65
	c-0.62,1.91,0.42,3.97,2.33,4.59l285.65,93.21c1.91,0.62,3.97-0.42,4.59-2.33l93.21-285.65c0.3-0.92,0.23-1.91-0.21-2.78
	c-0.44-0.87-1.19-1.51-2.12-1.81l-285.65-93.21C404.85,284.04,404.47,283.99,404.1,283.99z"/>
<path class="st0" d="M651.81,631.51H351.33c-2.56,0-4.64-2.08-4.64-4.64V326.39c0-2.56,2.08-4.64,4.64-4.64h300.48
	c2.56,0,4.64,2.08,4.64,4.64v300.48C656.45,629.43,654.37,631.51,651.81,631.51z M351.33,322.75c-2.01,0-3.64,1.63-3.64,3.64v300.48
	c0,2.01,1.63,3.64,3.64,3.64h300.48c2.01,0,3.64-1.63,3.64-3.64V326.39c0-2.01-1.63-3.64-3.64-3.64H351.33z"/>
<path class="st0" d="M401.53,669.31c-0.73,0-1.46-0.17-2.13-0.52c-1.1-0.57-1.91-1.53-2.29-2.71l-91.19-286.31
	c-0.78-2.44,0.58-5.05,3.01-5.83l286.31-91.19c2.44-0.78,5.05,0.58,5.83,3.01l91.19,286.31c0.38,1.18,0.27,2.44-0.3,3.54
	c-0.57,1.1-1.53,1.92-2.71,2.29l-286.31,91.19C402.48,669.24,402.01,669.31,401.53,669.31z M596.66,283.53
	c-0.37,0-0.74,0.06-1.1,0.17l-286.31,91.19c-1.91,0.61-2.97,2.66-2.36,4.57l91.19,286.31c0.29,0.93,0.93,1.68,1.8,2.13
	s1.85,0.53,2.78,0.23l286.31-91.19c0.93-0.29,1.68-0.93,2.13-1.8s0.53-1.85,0.23-2.78l-91.19-286.31
	C599.63,284.52,598.2,283.53,596.66,283.53z"/>
<path class="st0" d="M466.18,690.46c-1.43,0-2.85-0.66-3.76-1.91L285.44,445.73c-1.51-2.07-1.05-4.98,1.02-6.48l242.83-176.97
	c1-0.73,2.23-1.02,3.45-0.83c1.22,0.19,2.3,0.85,3.03,1.85l176.97,242.83c0.73,1,1.03,2.23,0.83,3.45s-0.85,2.3-1.85,3.03
	L468.9,689.58C468.08,690.18,467.12,690.46,466.18,690.46z M532.02,262.38c-0.76,0-1.51,0.24-2.14,0.7L287.05,440.05
	c-0.79,0.57-1.3,1.42-1.45,2.38c-0.15,0.96,0.08,1.92,0.65,2.71l176.98,242.83c1.18,1.62,3.46,1.98,5.09,0.8l242.83-176.97
	c0.79-0.57,1.3-1.42,1.45-2.38c0.15-0.96-0.08-1.92-0.65-2.71L534.97,263.88c-0.57-0.79-1.42-1.3-2.38-1.45
	C532.4,262.39,532.21,262.38,532.02,262.38z"/>
<path class="st0" d="M528.97,690.92c-0.97,0-1.95-0.3-2.78-0.93L285.95,509.51c-0.99-0.74-1.63-1.83-1.81-3.06
	c-0.17-1.23,0.14-2.45,0.88-3.44l180.48-240.24c0.74-0.99,1.83-1.63,3.06-1.81c1.23-0.17,2.45,0.14,3.44,0.88l240.24,180.48
	c2.05,1.54,2.46,4.45,0.92,6.5L532.69,689.07C531.78,690.28,530.38,690.92,528.97,690.92z M469.23,261.92
	c-0.17,0-0.35,0.01-0.52,0.04c-0.96,0.14-1.81,0.64-2.4,1.42L285.83,503.62c-0.58,0.78-0.83,1.74-0.69,2.7
	c0.14,0.96,0.64,1.81,1.42,2.4l240.24,180.48c1.61,1.21,3.89,0.88,5.1-0.72l180.48-240.24c1.21-1.61,0.88-3.89-0.72-5.1
	L471.4,262.65C470.77,262.17,470.01,261.92,469.23,261.92z"/>
</svg>
